<?xml version="1.0" encoding="utf-8"?>
<svg xmlns="http://www.w3.org/2000/svg" xmlns:xlink="http://www.w3.org/1999/xlink" style="margin: auto; background: rgb(230, 224, 224); display: block; shape-rendering: auto;" width="84px" height="84px" viewBox="0 0 100 100" preserveAspectRatio="xMidYMid">
<g transform="rotate(0 50 50)">
  <rect x="49.5" y="26" rx="0" ry="0" width="1" height="12" fill="#ffb6bb">
    <animate attributeName="opacity" values="1;0" keyTimes="0;1" dur="2.4390243902439024s" begin="-2.2764227642276422s" repeatCount="indefinite"></animate>
  </rect>
</g><g transform="rotate(24 50 50)">
  <rect x="49.5" y="26" rx="0" ry="0" width="1" height="12" fill="#ffe691">
    <animate attributeName="opacity" values="1;0" keyTimes="0;1" dur="2.4390243902439024s" begin="-2.113821138211382s" repeatCount="indefinite"></animate>
  </rect>
</g><g transform="rotate(48 50 50)">
  <rect x="49.5" y="26" rx="0" ry="0" width="1" height="12" fill="#95d5ee">
    <animate attributeName="opacity" values="1;0" keyTimes="0;1" dur="2.4390243902439024s" begin="-1.951219512195122s" repeatCount="indefinite"></animate>
  </rect>
</g><g transform="rotate(72 50 50)">
  <rect x="49.5" y="26" rx="0" ry="0" width="1" height="12" fill="#585872">
    <animate attributeName="opacity" values="1;0" keyTimes="0;1" dur="2.4390243902439024s" begin="-1.7886178861788617s" repeatCount="indefinite"></animate>
  </rect>
</g><g transform="rotate(96 50 50)">
  <rect x="49.5" y="26" rx="0" ry="0" width="1" height="12" fill="#9e4446">
    <animate attributeName="opacity" values="1;0" keyTimes="0;1" dur="2.4390243902439024s" begin="-1.6260162601626016s" repeatCount="indefinite"></animate>
  </rect>
</g><g transform="rotate(120 50 50)">
  <rect x="49.5" y="26" rx="0" ry="0" width="1" height="12" fill="#ffb6bb">
    <animate attributeName="opacity" values="1;0" keyTimes="0;1" dur="2.4390243902439024s" begin="-1.4634146341463414s" repeatCount="indefinite"></animate>
  </rect>
</g><g transform="rotate(144 50 50)">
  <rect x="49.5" y="26" rx="0" ry="0" width="1" height="12" fill="#ffe691">
    <animate attributeName="opacity" values="1;0" keyTimes="0;1" dur="2.4390243902439024s" begin="-1.3008130081300813s" repeatCount="indefinite"></animate>
  </rect>
</g><g transform="rotate(168 50 50)">
  <rect x="49.5" y="26" rx="0" ry="0" width="1" height="12" fill="#95d5ee">
    <animate attributeName="opacity" values="1;0" keyTimes="0;1" dur="2.4390243902439024s" begin="-1.1382113821138211s" repeatCount="indefinite"></animate>
  </rect>
</g><g transform="rotate(192 50 50)">
  <rect x="49.5" y="26" rx="0" ry="0" width="1" height="12" fill="#585872">
    <animate attributeName="opacity" values="1;0" keyTimes="0;1" dur="2.4390243902439024s" begin="-0.975609756097561s" repeatCount="indefinite"></animate>
  </rect>
</g><g transform="rotate(216 50 50)">
  <rect x="49.5" y="26" rx="0" ry="0" width="1" height="12" fill="#9e4446">
    <animate attributeName="opacity" values="1;0" keyTimes="0;1" dur="2.4390243902439024s" begin="-0.8130081300813008s" repeatCount="indefinite"></animate>
  </rect>
</g><g transform="rotate(240 50 50)">
  <rect x="49.5" y="26" rx="0" ry="0" width="1" height="12" fill="#ffb6bb">
    <animate attributeName="opacity" values="1;0" keyTimes="0;1" dur="2.4390243902439024s" begin="-0.6504065040650406s" repeatCount="indefinite"></animate>
  </rect>
</g><g transform="rotate(264 50 50)">
  <rect x="49.5" y="26" rx="0" ry="0" width="1" height="12" fill="#ffe691">
    <animate attributeName="opacity" values="1;0" keyTimes="0;1" dur="2.4390243902439024s" begin="-0.4878048780487805s" repeatCount="indefinite"></animate>
  </rect>
</g><g transform="rotate(288 50 50)">
  <rect x="49.5" y="26" rx="0" ry="0" width="1" height="12" fill="#95d5ee">
    <animate attributeName="opacity" values="1;0" keyTimes="0;1" dur="2.4390243902439024s" begin="-0.3252032520325203s" repeatCount="indefinite"></animate>
  </rect>
</g><g transform="rotate(312 50 50)">
  <rect x="49.5" y="26" rx="0" ry="0" width="1" height="12" fill="#585872">
    <animate attributeName="opacity" values="1;0" keyTimes="0;1" dur="2.4390243902439024s" begin="-0.16260162601626016s" repeatCount="indefinite"></animate>
  </rect>
</g><g transform="rotate(336 50 50)">
  <rect x="49.5" y="26" rx="0" ry="0" width="1" height="12" fill="#9e4446">
    <animate attributeName="opacity" values="1;0" keyTimes="0;1" dur="2.4390243902439024s" begin="0s" repeatCount="indefinite"></animate>
  </rect>
</g>
<!-- [ldio] generated by https://loading.io/ --></svg>